# Blender v3.1.2 OBJ File: '2-blender 建模.blend'
# www.blender.org
mtllib 2-blender 建模.mtl
o Cube
v 1.894549 9.283857 -14.294816
v 2.813235 -7.456775 -15.183827
v -0.833009 7.631865 15.527122
v 0.084001 -9.182194 14.488789
v -0.028477 9.849286 -15.523885
v 0.955756 -8.098495 -16.477011
v -2.953813 7.999458 16.288385
v -1.969580 -9.948322 15.335259
v 1.960144 9.948322 -15.335259
v 2.944377 -7.999458 -16.288385
v -0.964792 8.177200 16.637083
v 0.019041 -9.849286 15.523885
v 1.960144 9.948322 -15.335259
v 2.944377 -7.999458 -16.288385
v -0.964792 8.177200 16.637083
v 0.019041 -9.849286 15.523885
v 1.960144 9.948322 -15.335259
v 2.944377 -7.999458 -16.288385
v -0.964792 8.177200 16.637083
v 0.019041 -9.849286 15.523885
v 1.960144 9.948322 -15.335259
v 2.944377 -7.999458 -16.288385
v -0.964792 8.177200 16.637083
v 0.019041 -9.849286 15.523885
v 1.960144 9.948322 -15.335259
v 2.944377 -7.999458 -16.288385
v -0.964792 8.177200 16.637083
v 0.019041 -9.849286 15.523885
v 1.960144 9.948322 -15.335259
v 2.944377 -7.999458 -16.288385
v -0.964792 8.177200 16.637083
v 0.019041 -9.849286 15.523885
v 1.960144 9.948322 -15.335259
v 2.944377 -7.999458 -16.288385
v -0.964792 8.177200 16.637083
v 0.019041 -9.849286 15.523885
v 1.960144 9.948322 -15.335259
v 2.944377 -7.999458 -16.288385
v -0.964792 8.177200 16.637083
v 0.019041 -9.849286 15.523885
v 1.960144 9.948322 -15.335259
v 2.944377 -7.999458 -16.288385
v -0.964792 8.177200 16.637083
v 0.019041 -9.849286 15.523885
v 1.949494 9.840447 -15.166345
v 2.923087 -7.911355 -16.109062
v -0.943397 8.088665 16.456881
v 0.029587 -9.740985 15.355838
v 1.949494 9.840447 -15.166345
v 2.923087 -7.911355 -16.109062
v -0.943397 8.088665 16.456881
v 0.029587 -9.740985 15.355838
v -0.632662 9.159319 -14.533679
v 0.286025 -7.581313 -15.422689
v -3.360219 7.507328 15.288260
v -2.443209 -9.306731 14.249926
vt 0.596734 0.891377
vt -0.184236 0.891377
vt -0.184236 0.110406
vt 0.604307 0.106635
vt 0.596734 0.108621
vt 0.604307 0.893363
vt -0.184236 0.889591
vt -0.184236 0.108621
vt 0.110406 0.108621
vt 0.110406 0.889591
vt 0.891377 0.889591
vt 0.891377 0.108621
vt -0.184236 0.891377
vt 0.596734 0.891377
vt 0.596734 0.110406
vt -0.184236 0.110406
vt 0.596735 0.136606
vt 0.596988 0.865051
vt -0.395440 0.865032
vt -0.395693 0.136587
vt -0.184236 0.108621
vt -0.184236 0.889591
vt 0.596734 0.889591
vt 0.596734 0.108621
vt 0.596734 0.891377
vt 0.596734 0.891377
vt 0.596734 0.110406
vt 0.604307 0.106635
vt 0.596734 0.891377
vt 0.596734 0.891377
vt 0.596734 0.110406
vt 0.604307 0.106635
vt 0.596734 0.891377
vt 0.596734 0.891377
vt 0.596734 0.110406
vt 0.604307 0.106635
vt 0.596734 0.891377
vt 0.596734 0.891377
vt 0.596734 0.110406
vt 0.604307 0.106635
vt 0.596734 0.891377
vt 0.596734 0.891377
vt 0.596734 0.110406
vt 0.604307 0.106635
vt 0.596734 0.891377
vt 0.596734 0.891377
vt 0.596734 0.110406
vt 0.604307 0.106635
vt 0.596734 0.891377
vt 0.596734 0.891377
vt 0.596734 0.110406
vt 0.604307 0.106635
vt 0.596734 0.891377
vt 0.596734 0.891377
vt 0.596734 0.110406
vt 0.604307 0.106635
vt 0.887102 0.885338
vt 0.887103 0.112895
vt 0.891377 0.108621
vt 0.891377 0.889591
vt 0.114660 0.112895
vt 0.110930 0.889068
vt 0.106635 0.893363
vt 0.110406 0.108621
vt 0.596734 0.887102
vt 0.596775 0.887103
vt 0.596775 0.887103
vt 0.596734 0.887102
vt 0.596734 0.114660
vt 0.604265 0.110930
vt 0.604265 0.110930
vt 0.596734 0.114660
vt 0.865049 0.863392
vt 0.865051 0.134947
vt 0.887103 0.112895
vt 0.887102 0.885338
vt 0.136606 0.134948
vt 0.133089 0.866908
vt 0.110930 0.889068
vt 0.114660 0.112895
vt 0.865032 0.135006
vt 0.865031 0.863451
vt 0.133071 0.866967
vt 0.136587 0.135007
vt 0.604051 0.866908
vt 0.596735 0.134948
vt -0.395693 0.135007
vt -0.388377 0.866967
vt 0.596735 0.865049
vt 0.604051 0.133089
vt -0.388377 0.133071
vt -0.395693 0.865031
vt 0.596988 0.134947
vt 0.596735 0.863392
vt -0.395693 0.863451
vt -0.395440 0.135006
vn -0.0760 0.9959 0.0496
vn -0.1292 -0.0639 0.9896
vn -0.9943 -0.0495 -0.0943
vn 0.0547 -0.9971 -0.0530
vn -0.0541 0.9971 0.0530
vn 0.0914 0.0578 -0.9941
vn 0.0000 0.0000 1.0000
vn 0.9943 0.0495 0.0940
vn 0.9944 0.0485 0.0940
vn 0.9944 0.0490 0.0937
vn 0.9943 0.0490 0.0943
vn 0.9943 0.0496 0.0940
vn 0.9944 0.0484 0.0940
vn 0.9944 0.0490 0.0940
vn 0.0907 0.0663 -0.9937
vn 0.0539 -0.9973 -0.0503
vn -0.0911 -0.0578 0.9942
usemtl Material
s off
f 9/1/1 5/2/1 7/3/1 11/4/1
f 12/5/2 11/6/2 7/7/2 8/8/2
f 8/9/3 7/10/3 5/11/3 6/12/3
f 6/13/4 10/14/4 12/15/4 8/16/4
f 4/17/5 2/18/5 54/19/5 56/20/5
f 6/21/6 5/22/6 9/23/6 10/24/6
f 13/25/7 14/26/7 10/14/7 9/1/7
f 16/27/7 15/28/7 11/4/7 12/15/7
f 15/28/7 13/25/7 9/1/7 11/4/7
f 14/26/7 16/27/7 12/15/7 10/14/7
f 17/29/7 18/30/7 14/26/7 13/25/7
f 20/31/7 19/32/7 15/28/7 16/27/7
f 19/32/7 17/29/7 13/25/7 15/28/7
f 18/30/7 20/31/7 16/27/7 14/26/7
f 21/33/7 22/34/7 18/30/7 17/29/7
f 24/35/7 23/36/7 19/32/7 20/31/7
f 23/36/7 21/33/7 17/29/7 19/32/7
f 22/34/7 24/35/7 20/31/7 18/30/7
f 25/37/7 26/38/7 22/34/7 21/33/7
f 28/39/7 27/40/7 23/36/7 24/35/7
f 27/40/7 25/37/7 21/33/7 23/36/7
f 26/38/7 28/39/7 24/35/7 22/34/7
f 29/41/7 30/42/7 26/38/7 25/37/7
f 32/43/7 31/44/7 27/40/7 28/39/7
f 31/44/7 29/41/7 25/37/7 27/40/7
f 30/42/7 32/43/7 28/39/7 26/38/7
f 33/45/7 34/46/7 30/42/7 29/41/7
f 36/47/7 35/48/7 31/44/7 32/43/7
f 35/48/7 33/45/7 29/41/7 31/44/7
f 34/46/7 36/47/7 32/43/7 30/42/7
f 37/49/7 38/50/7 34/46/7 33/45/7
f 40/51/7 39/52/7 35/48/7 36/47/7
f 39/52/7 37/49/7 33/45/7 35/48/7
f 38/50/7 40/51/7 36/47/7 34/46/7
f 41/53/7 42/54/7 38/50/7 37/49/7
f 44/55/7 43/56/7 39/52/7 40/51/7
f 43/56/7 41/53/7 37/49/7 39/52/7
f 42/54/7 44/55/7 40/51/7 38/50/7
f 45/57/8 46/58/8 42/59/8 41/60/8
f 48/61/9 47/62/9 43/63/9 44/64/9
f 47/62/10 45/57/10 41/60/10 43/63/10
f 46/58/11 48/61/11 44/64/11 42/59/11
f 49/65/7 50/66/7 46/67/7 45/68/7
f 52/69/7 51/70/7 47/71/7 48/72/7
f 51/70/7 49/65/7 45/68/7 47/71/7
f 50/66/7 52/69/7 48/72/7 46/67/7
f 1/73/12 2/74/12 50/75/12 49/76/12
f 4/77/13 3/78/13 51/79/13 52/80/13
f 3/78/10 1/73/10 49/76/10 51/79/10
f 2/74/11 4/77/11 52/80/11 50/75/11
f 54/81/14 53/82/14 55/83/14 56/84/14
f 3/85/15 4/86/15 56/87/15 55/88/15
f 1/89/16 3/90/16 55/91/16 53/92/16
f 2/93/17 1/94/17 53/95/17 54/96/17
